<svg xmlns="http://www.w3.org/2000/svg" viewBox="0 0 32 32" fill="none">
  <defs>
    <linearGradient id="g" x1="0" y1="0" x2="32" y2="32" gradientUnits="userSpaceOnUse">
      <stop offset="0%" stop-color="#2563eb"/>
      <stop offset="100%" stop-color="#7c3aed"/>
    </linearGradient>
  </defs>
  <rect width="32" height="32" rx="8" fill="url(#g)"/>
  <path d="M16 7c-1.1 0-2 .9-2 2v1h-3a2 2 0 0 0-2 2v11a2 2 0 0 0 2 2h10a2 2 0 0 0 2-2V12a2 2 0 0 0-2-2h-3V9c0-1.1-.9-2-2-2zm0 2h0v1h0V9zm-4 5h8v2h-8v-2zm0 4h5v2h-5v-2z" fill="white" opacity="0.95"/>
</svg>
